<svg width="800" height="586" viewBox="0 0 800 586" fill="none" xmlns="http://www.w3.org/2000/svg">
<g filter="url(#filter0_b_260_620)">
<path d="M745.947 102.636H54.043C49.6247 102.636 46.043 106.218 46.043 110.636V576.165C46.043 580.583 49.6247 584.165 54.043 584.165H745.947C750.365 584.165 753.947 580.583 753.947 576.165V110.636C753.947 106.218 750.365 102.636 745.947 102.636Z" fill="#02041F" fill-opacity="0.3"/>
<path d="M745.947 102.136H54.043C49.3485 102.136 45.543 105.942 45.543 110.636V576.165C45.543 580.859 49.3486 584.665 54.043 584.665H745.947C750.641 584.665 754.447 580.859 754.447 576.165V110.636C754.447 105.942 750.641 102.136 745.947 102.136Z" stroke="black" stroke-opacity="0.48"/>
</g>
<g filter="url(#filter1_b_260_620)">
<path d="M773.763 538.122H26.2246C21.8063 538.122 18.2246 541.704 18.2246 546.122V556.021C18.2246 560.439 21.8063 564.021 26.2246 564.021H773.763C778.181 564.021 781.763 560.439 781.763 556.021V546.122C781.763 541.704 778.181 538.122 773.763 538.122Z" fill="#02041F" fill-opacity="0.4"/>
<path d="M773.763 537.622H26.2246C21.5302 537.622 17.7246 541.428 17.7246 546.122V556.021C17.7246 560.715 21.5302 564.521 26.2246 564.521H773.763C778.458 564.521 782.263 560.715 782.263 556.021V546.122C782.263 541.428 778.458 537.622 773.763 537.622Z" stroke="black" stroke-opacity="0.4"/>
</g>
<g filter="url(#filter2_bi_260_620)">
<path d="M792 0H8C3.58172 0 0 3.58174 0 8.00002V536.811C0 541.229 3.58171 544.811 7.99999 544.811H792C796.418 544.811 800 541.229 800 536.811V8C800 3.58172 796.418 0 792 0Z" fill="#1B2023" fill-opacity="0.6"/>
</g>
<rect opacity="0.2" x="234.049" y="7.56665" width="327.643" height="15.1336" rx="4" fill="#717A84"/>
<path d="M223.419 12.201L219.787 10.6639C219.676 10.6173 219.557 10.5933 219.438 10.5933C219.318 10.5933 219.199 10.6173 219.089 10.6639L215.456 12.201C215.118 12.3432 214.896 12.6795 214.896 13.0522C214.896 16.8663 217.062 19.5026 219.087 20.3595C219.31 20.4537 219.561 20.4537 219.785 20.3595C221.406 19.6736 223.977 17.3044 223.977 13.0522C223.977 12.6795 223.755 12.3432 223.419 12.201ZM219.438 19.1682L219.437 11.8475L222.764 13.2559C222.702 16.165 221.211 18.2728 219.438 19.1682V19.1682Z" fill="#717A84"/>
<path d="M369.562 14.6399H369.203V13.7714C369.203 12.723 368.712 12.1067 367.733 12.1067C366.753 12.1067 366.263 12.723 366.263 13.7714V14.6399H365.83C365.627 14.6399 365.463 14.8737 365.463 15.0738V18.193C365.463 18.3917 365.62 18.6052 365.812 18.666L366.252 18.8061C366.486 18.8731 366.727 18.9103 366.97 18.9168H368.496C368.739 18.9103 368.98 18.873 369.213 18.8057L369.653 18.6657C369.845 18.6052 370.003 18.3917 370.003 18.193V15.0738C370.003 14.8737 369.765 14.6399 369.562 14.6399ZM368.468 14.6399H366.998V13.6263C366.998 13.1033 367.291 12.8305 367.733 12.8305C368.175 12.8305 368.468 13.1033 368.468 13.6263V14.6399Z" fill="#717A84"/>
<path d="M376.391 17.4716C375.989 17.4716 375.638 17.3786 375.338 17.1926C375.038 17.0066 374.804 16.7366 374.636 16.3826C374.474 16.0286 374.393 15.6086 374.393 15.1226C374.393 14.6306 374.474 14.2106 374.636 13.8626C374.804 13.5146 375.038 13.2476 375.338 13.0616C375.638 12.8696 375.989 12.7736 376.391 12.7736C376.787 12.7736 377.132 12.8726 377.426 13.0706C377.72 13.2686 377.915 13.5386 378.011 13.8806H377.912L378.002 12.8546H378.884C378.866 13.0406 378.848 13.2266 378.83 13.4126C378.818 13.5926 378.812 13.7696 378.812 13.9436V17.3906H377.903V16.3826H378.002C377.906 16.7186 377.708 16.9856 377.408 17.1836C377.114 17.3756 376.775 17.4716 376.391 17.4716ZM376.616 16.7606C377.006 16.7606 377.318 16.6226 377.552 16.3466C377.792 16.0706 377.912 15.6626 377.912 15.1226C377.912 14.5826 377.792 14.1776 377.552 13.9076C377.318 13.6316 377.006 13.4936 376.616 13.4936C376.22 13.4936 375.902 13.6316 375.662 13.9076C375.428 14.1776 375.311 14.5826 375.311 15.1226C375.311 15.6626 375.428 16.0706 375.662 16.3466C375.896 16.6226 376.214 16.7606 376.616 16.7606ZM380.139 19.3346V13.9436C380.139 13.7696 380.13 13.5926 380.112 13.4126C380.1 13.2266 380.085 13.0406 380.067 12.8546H380.949L381.039 13.8806H380.94C381.036 13.5386 381.228 13.2686 381.516 13.0706C381.81 12.8726 382.158 12.7736 382.56 12.7736C382.962 12.7736 383.313 12.8696 383.613 13.0616C383.913 13.2476 384.144 13.5146 384.306 13.8626C384.474 14.2106 384.558 14.6306 384.558 15.1226C384.558 15.6086 384.474 16.0286 384.306 16.3826C384.144 16.7366 383.913 17.0066 383.613 17.1926C383.313 17.3786 382.962 17.4716 382.56 17.4716C382.164 17.4716 381.819 17.3756 381.525 17.1836C381.237 16.9856 381.045 16.7186 380.949 16.3826H381.048V19.3346H380.139ZM382.335 16.7606C382.731 16.7606 383.046 16.6226 383.28 16.3466C383.52 16.0706 383.64 15.6626 383.64 15.1226C383.64 14.5826 383.52 14.1776 383.28 13.9076C383.046 13.6316 382.731 13.4936 382.335 13.4936C381.939 13.4936 381.621 13.6316 381.381 13.9076C381.147 14.1776 381.03 14.5826 381.03 15.1226C381.03 15.6626 381.147 16.0706 381.381 16.3466C381.621 16.6226 381.939 16.7606 382.335 16.7606ZM385.623 19.3346V13.9436C385.623 13.7696 385.614 13.5926 385.596 13.4126C385.584 13.2266 385.569 13.0406 385.551 12.8546H386.433L386.523 13.8806H386.424C386.52 13.5386 386.712 13.2686 387 13.0706C387.294 12.8726 387.642 12.7736 388.044 12.7736C388.446 12.7736 388.797 12.8696 389.097 13.0616C389.397 13.2476 389.628 13.5146 389.79 13.8626C389.958 14.2106 390.042 14.6306 390.042 15.1226C390.042 15.6086 389.958 16.0286 389.79 16.3826C389.628 16.7366 389.397 17.0066 389.097 17.1926C388.797 17.3786 388.446 17.4716 388.044 17.4716C387.648 17.4716 387.303 17.3756 387.009 17.1836C386.721 16.9856 386.529 16.7186 386.433 16.3826H386.532V19.3346H385.623ZM387.819 16.7606C388.215 16.7606 388.53 16.6226 388.764 16.3466C389.004 16.0706 389.124 15.6626 389.124 15.1226C389.124 14.5826 389.004 14.1776 388.764 13.9076C388.53 13.6316 388.215 13.4936 387.819 13.4936C387.423 13.4936 387.105 13.6316 386.865 13.9076C386.631 14.1776 386.514 14.5826 386.514 15.1226C386.514 15.6626 386.631 16.0706 386.865 16.3466C387.105 16.6226 387.423 16.7606 387.819 16.7606ZM390.788 17.3906V16.3196H391.859V17.3906H390.788ZM394.626 17.4716C394.08 17.4716 393.669 17.3246 393.393 17.0306C393.123 16.7306 392.988 16.2716 392.988 15.6536V12.8546H393.897V15.6356C393.897 16.0136 393.975 16.2926 394.131 16.4726C394.287 16.6526 394.524 16.7426 394.842 16.7426C395.202 16.7426 395.493 16.6226 395.715 16.3826C395.937 16.1426 396.048 15.8246 396.048 15.4286V12.8546H396.957V17.3906H396.075V16.4186H396.192C396.066 16.7546 395.865 17.0156 395.589 17.2016C395.313 17.3816 394.992 17.4716 394.626 17.4716ZM398.288 17.3906V12.8546H399.197V17.3906H398.288ZM398.216 11.9096V10.9646H399.269V11.9096H398.216ZM401.762 17.3906L400.043 12.8546H400.988L402.329 16.6346H402.095L403.472 12.8546H404.174L405.542 16.6346H405.317L406.658 12.8546H407.567L405.839 17.3906H405.011L403.589 13.5386H404.012L402.608 17.3906H401.762ZM410.053 17.4716C409.651 17.4716 409.3 17.3786 409 17.1926C408.7 17.0066 408.466 16.7366 408.298 16.3826C408.136 16.0286 408.055 15.6086 408.055 15.1226C408.055 14.6306 408.136 14.2106 408.298 13.8626C408.466 13.5146 408.7 13.2476 409 13.0616C409.3 12.8696 409.651 12.7736 410.053 12.7736C410.449 12.7736 410.794 12.8726 411.088 13.0706C411.382 13.2686 411.577 13.5386 411.673 13.8806H411.574L411.664 12.8546H412.546C412.528 13.0406 412.51 13.2266 412.492 13.4126C412.48 13.5926 412.474 13.7696 412.474 13.9436V17.3906H411.565V16.3826H411.664C411.568 16.7186 411.37 16.9856 411.07 17.1836C410.776 17.3756 410.437 17.4716 410.053 17.4716ZM410.278 16.7606C410.668 16.7606 410.98 16.6226 411.214 16.3466C411.454 16.0706 411.574 15.6626 411.574 15.1226C411.574 14.5826 411.454 14.1776 411.214 13.9076C410.98 13.6316 410.668 13.4936 410.278 13.4936C409.882 13.4936 409.564 13.6316 409.324 13.9076C409.09 14.1776 408.973 14.5826 408.973 15.1226C408.973 15.6626 409.09 16.0706 409.324 16.3466C409.558 16.6226 409.876 16.7606 410.278 16.7606ZM415.089 17.3906L413.145 12.8546H414.117L415.647 16.6436H415.386L416.943 12.8546H417.87L415.917 17.3906H415.089ZM420.609 17.4716C419.877 17.4716 419.301 17.2646 418.881 16.8506C418.461 16.4366 418.251 15.8636 418.251 15.1316C418.251 14.6576 418.341 14.2436 418.521 13.8896C418.707 13.5356 418.962 13.2626 419.286 13.0706C419.616 12.8726 419.997 12.7736 420.429 12.7736C420.855 12.7736 421.212 12.8636 421.5 13.0436C421.788 13.2236 422.007 13.4786 422.157 13.8086C422.307 14.1326 422.382 14.5166 422.382 14.9606V15.2486H418.962V14.7266H421.761L421.608 14.8436C421.608 14.3936 421.506 14.0456 421.302 13.7996C421.104 13.5476 420.816 13.4216 420.438 13.4216C420.018 13.4216 419.694 13.5686 419.466 13.8626C419.238 14.1506 419.124 14.5496 419.124 15.0596V15.1496C419.124 15.6836 419.253 16.0856 419.511 16.3556C419.775 16.6256 420.147 16.7606 420.627 16.7606C420.891 16.7606 421.137 16.7246 421.365 16.6526C421.599 16.5746 421.821 16.4486 422.031 16.2746L422.328 16.8956C422.118 17.0816 421.863 17.2256 421.563 17.3276C421.263 17.4236 420.945 17.4716 420.609 17.4716ZM423.29 17.3906V16.3196H424.361V17.3906H423.29ZM425.561 17.3906V12.8546H426.47V17.3906H425.561ZM425.489 11.9096V10.9646H426.542V11.9096H425.489ZM429.746 17.4716C429.296 17.4716 428.906 17.3786 428.576 17.1926C428.246 17.0006 427.991 16.7306 427.811 16.3826C427.631 16.0286 427.541 15.6086 427.541 15.1226C427.541 14.6366 427.631 14.2196 427.811 13.8716C427.991 13.5176 428.246 13.2476 428.576 13.0616C428.906 12.8696 429.296 12.7736 429.746 12.7736C430.196 12.7736 430.586 12.8696 430.916 13.0616C431.252 13.2476 431.51 13.5176 431.69 13.8716C431.876 14.2196 431.969 14.6366 431.969 15.1226C431.969 15.6086 431.876 16.0286 431.69 16.3826C431.51 16.7306 431.252 17.0006 430.916 17.1926C430.586 17.3786 430.196 17.4716 429.746 17.4716ZM429.746 16.7606C430.142 16.7606 430.457 16.6226 430.691 16.3466C430.925 16.0706 431.042 15.6626 431.042 15.1226C431.042 14.5826 430.925 14.1776 430.691 13.9076C430.457 13.6316 430.142 13.4936 429.746 13.4936C429.356 13.4936 429.044 13.6316 428.81 13.9076C428.576 14.1776 428.459 14.5826 428.459 15.1226C428.459 15.6626 428.573 16.0706 428.801 16.3466C429.035 16.6226 429.35 16.7606 429.746 16.7606Z" fill="#717A84"/>
<circle cx="12.1068" cy="15.1335" r="3.02673" fill="#D8695B"/>
<circle cx="21.9447" cy="15.1334" r="3.02673" fill="#EAC213"/>
<circle cx="31.7806" cy="15.1335" r="3.02673" fill="#79C743"/>
<path d="M54.4805 12.8635H55.2372" stroke="#717A84" stroke-linecap="square" stroke-linejoin="round"/>
<path d="M54.4805 14.377H55.2372" stroke="#717A84" stroke-linecap="square" stroke-linejoin="round"/>
<rect x="52.4668" y="10.8499" width="11.5936" height="9.3235" rx="1.5" stroke="#717A84"/>
<path d="M56.752 10.9717V20.0519" stroke="#717A84" stroke-linecap="square" stroke-linejoin="round"/>
<path d="M554.842 12.03C554.351 12.0278 553.865 12.136 553.421 12.3467C552.977 12.5574 552.586 12.8651 552.276 13.2471C551.313 14.4263 551.302 16.1775 552.253 17.3683C553.508 18.9444 555.796 19.0436 557.177 17.6631C557.618 17.2223 557.924 16.6656 558.061 16.0575C558.198 15.4494 558.16 14.8149 557.95 14.2278C557.848 13.9388 557.483 13.8542 557.267 14.0702C557.159 14.1782 557.116 14.3387 557.165 14.4817C557.36 15.0157 557.366 15.6006 557.18 16.138C556.995 16.6755 556.63 17.1326 556.147 17.4325C555.356 17.9375 554.305 17.9316 553.52 17.4208C553.206 17.2223 552.941 16.9558 552.744 16.6409C552.547 16.3261 552.423 15.971 552.382 15.6019C552.341 15.2329 552.383 14.8593 552.506 14.5087C552.629 14.1582 552.828 13.8398 553.091 13.5769C553.575 13.0924 554.209 12.8619 554.842 12.8648L554.842 13.7462C554.842 14.114 555.286 14.3008 555.545 14.041L556.593 12.9932C556.754 12.8327 556.754 12.57 556.593 12.4095L555.545 11.3616C555.286 11.1019 554.839 11.2858 554.839 11.6535L554.842 12.03V12.03Z" fill="#717A84"/>
<path fill-rule="evenodd" clip-rule="evenodd" d="M776.437 12.0393C776.437 11.4978 776.862 11.0434 777.45 11.0424C778.037 11.0414 778.416 11.0434 778.416 11.0434C778.416 11.0434 778.391 10.4647 778.391 10.0044C778.391 9.54401 778.796 9.08329 779.383 9.08329C779.971 9.08329 785.418 9.06638 785.97 9.10735C786.523 9.14832 786.962 9.49576 786.962 10.0546C786.962 10.6134 786.959 16.1546 786.959 16.6679C786.959 17.1811 786.498 17.6474 785.928 17.6538C785.357 17.6603 784.97 17.6473 784.97 17.6473C784.97 17.6473 784.991 18.2957 784.991 18.6939C784.991 19.092 784.528 19.6703 783.985 19.6703C783.442 19.6703 777.93 19.7056 777.404 19.7056C776.878 19.7056 776.392 19.2428 776.415 18.666C776.437 18.0891 776.437 12.5807 776.437 12.0393H776.437ZM779.432 10.1869L779.428 16.5702C779.428 16.6415 779.486 16.6996 779.558 16.6992L785.772 16.6661C785.806 16.6659 785.839 16.6521 785.864 16.6276C785.888 16.6031 785.902 16.5699 785.902 16.5354L785.897 10.2093C785.897 10.1747 785.884 10.1415 785.859 10.117C785.835 10.0925 785.801 10.0788 785.767 10.0788L779.563 10.0576C779.546 10.0574 779.529 10.0606 779.513 10.0671C779.497 10.0735 779.483 10.083 779.471 10.095C779.459 10.107 779.449 10.1213 779.442 10.1371C779.436 10.1529 779.432 10.1698 779.432 10.1869V10.1869ZM777.442 12.304L777.502 18.5626C777.502 18.5971 777.516 18.63 777.541 18.6541C777.566 18.6783 777.599 18.6917 777.633 18.6915L783.754 18.645C783.788 18.6448 783.822 18.6378 783.853 18.6246C783.885 18.6113 783.913 18.5919 783.937 18.5676C783.961 18.5432 783.98 18.5144 783.992 18.4828C784.005 18.4511 784.011 18.4173 784.011 18.3832L784.002 17.659C784.002 17.659 779.913 17.6966 779.382 17.6966C778.85 17.6966 778.378 17.1932 778.378 16.6269C778.378 16.0605 778.416 12.1595 778.416 12.1595C778.417 12.0879 778.359 12.0301 778.288 12.031L777.701 12.0395C777.631 12.0404 777.565 12.0688 777.517 12.1184C777.468 12.168 777.442 12.2347 777.442 12.304Z" fill="#717A84"/>
<path d="M758.764 13.8093V9.83667H757.629V13.8093H753.656V14.9443H757.629V18.9169H758.764V14.9443H762.736V13.8093H758.764Z" fill="#717A84"/>
<path d="M735.497 9.07983L733.479 11.0977H734.992V15.6377H736.001V11.0977H737.514L735.497 9.07983ZM738.523 20.1778H732.47C732.202 20.1778 731.946 20.0715 731.756 19.8823C731.567 19.6931 731.461 19.4365 731.461 19.1689V13.1155C731.461 12.8479 731.567 12.5913 731.756 12.4021C731.946 12.2129 732.202 12.1066 732.47 12.1066H733.983V13.1155H732.47V19.1689H738.523V13.1155H737.01V12.1066H738.523C738.791 12.1066 739.048 12.2129 739.237 12.4021C739.426 12.5913 739.532 12.8479 739.532 13.1155V19.1689C739.532 19.4365 739.426 19.6931 739.237 19.8823C739.048 20.0715 738.791 20.1778 738.523 20.1778Z" fill="#717A84"/>
<path d="M80.4494 11.2263L76.666 15.0097L80.0711 18.4148" stroke="white" stroke-width="1.5" stroke-linecap="round" stroke-linejoin="round"/>
<path opacity="0.5" d="M94.4471 18.4148L98.2305 14.6314L94.8254 11.2263" stroke="white" stroke-width="1.5" stroke-linecap="round" stroke-linejoin="round"/>
<path d="M0 29.3082H799.989" stroke="black"/>
<defs>
<filter id="filter0_b_260_620" x="18.043" y="74.6365" width="763.904" height="537.528" filterUnits="userSpaceOnUse" color-interpolation-filters="sRGB">
<feFlood flood-opacity="0" result="BackgroundImageFix"/>
<feGaussianBlur in="BackgroundImageFix" stdDeviation="13.5"/>
<feComposite in2="SourceAlpha" operator="in" result="effect1_backgroundBlur_260_620"/>
<feBlend mode="normal" in="SourceGraphic" in2="effect1_backgroundBlur_260_620" result="shape"/>
</filter>
<filter id="filter1_b_260_620" x="-9.77539" y="510.122" width="819.539" height="81.8989" filterUnits="userSpaceOnUse" color-interpolation-filters="sRGB">
<feFlood flood-opacity="0" result="BackgroundImageFix"/>
<feGaussianBlur in="BackgroundImageFix" stdDeviation="13.5"/>
<feComposite in2="SourceAlpha" operator="in" result="effect1_backgroundBlur_260_620"/>
<feBlend mode="normal" in="SourceGraphic" in2="effect1_backgroundBlur_260_620" result="shape"/>
</filter>
<filter id="filter2_bi_260_620" x="-108" y="-108" width="1016" height="760.811" filterUnits="userSpaceOnUse" color-interpolation-filters="sRGB">
<feFlood flood-opacity="0" result="BackgroundImageFix"/>
<feGaussianBlur in="BackgroundImageFix" stdDeviation="54"/>
<feComposite in2="SourceAlpha" operator="in" result="effect1_backgroundBlur_260_620"/>
<feBlend mode="normal" in="SourceGraphic" in2="effect1_backgroundBlur_260_620" result="shape"/>
<feColorMatrix in="SourceAlpha" type="matrix" values="0 0 0 0 0 0 0 0 0 0 0 0 0 0 0 0 0 0 127 0" result="hardAlpha"/>
<feOffset dy="1"/>
<feComposite in2="hardAlpha" operator="arithmetic" k2="-1" k3="1"/>
<feColorMatrix type="matrix" values="0 0 0 0 1 0 0 0 0 1 0 0 0 0 1 0 0 0 0.1 0"/>
<feBlend mode="normal" in2="shape" result="effect2_innerShadow_260_620"/>
</filter>
</defs>
</svg>
